<?xml version="1.0" encoding="UTF-8" standalone="no"?>
<svg width="20px" height="20px" viewBox="0 0 20 20" version="1.1" xmlns="http://www.w3.org/2000/svg" xmlns:xlink="http://www.w3.org/1999/xlink" xmlns:sketch="http://www.bohemiancoding.com/sketch/ns">
    <!-- Generator: Sketch 3.1.1 (8761) - http://www.bohemiancoding.com/sketch -->
    <title>help_icon</title>
    <desc>Created with Sketch.</desc>
    <defs></defs>
    <g id="Page-1" stroke="none" stroke-width="1" fill="none" fill-rule="evenodd" sketch:type="MSPage">
        <g id="Artboard-1" sketch:type="MSArtboardGroup" transform="translate(-96.000000, -329.000000)">
            <g id="help_icon" sketch:type="MSLayerGroup" transform="translate(88.000000, 321.000000)">
                <path d="M0,0 L36,0 L36,36 L0,36 L0,0 Z" id="Shape" sketch:type="MSShapeGroup"></path>
                <g id="ic_help_24px" transform="translate(6.000000, 6.000000)" sketch:type="MSShapeGroup">
                    <path d="M0,0 L24,0 L24,24 L0,24 L0,0 Z" id="Shape"></path>
                    <path d="M12,2 C6.48,2 2,6.48 2,12 C2,17.52 6.48,22 12,22 C17.52,22 22,17.52 22,12 C22,6.48 17.52,2 12,2 L12,2 Z M13,19 L11,19 L11,17 L13,17 L13,19 L13,19 Z M15.07,11.25 L14.17,12.17 C13.45,12.9 13,13.5 13,15 L11,15 L11,14.5 C11,13.4 11.45,12.4 12.17,11.67 L13.41,10.41 C13.78,10.05 14,9.55 14,9 C14,7.9 13.1,7 12,7 C10.9,7 10,7.9 10,9 L8,9 C8,6.79 9.79,5 12,5 C14.21,5 16,6.79 16,9 C16,9.88 15.64,10.68 15.07,11.25 L15.07,11.25 Z" id="Shape" fill="#000000"></path>
                </g>
            </g>
        </g>
    </g>
</svg>